<svg id="10015.io" viewBox="0 0 480 480" xmlns="http://www.w3.org/2000/svg" xmlns:xlink="http://www.w3.org/1999/xlink" >
	<path fill="#2b2b2b" d="M399.5,270Q424,300,423.5,336.5Q423,373,396.5,396Q370,419,326.5,396.5Q283,374,261.5,373.5Q240,373,225,353Q210,333,177.5,351.5Q145,370,113.5,362.5Q82,355,87,321.5Q92,288,91,264Q90,240,58.5,205.5Q27,171,39,136.5Q51,102,75.5,74.5Q100,47,144.5,64.5Q189,82,214.5,66.5Q240,51,271.5,48.5Q303,46,304.5,97.5Q306,149,355.5,134.5Q405,120,415,150Q425,180,400,210Q375,240,399.5,270Z" />
</svg>